<?xml version="1.0" encoding="utf-8"?>
<svg width="23px" height="17px" viewBox="0 0 23 17" version="1.1" xmlns:xlink="http://www.w3.org/1999/xlink" xmlns="http://www.w3.org/2000/svg">
  <path d="M21.8476 7.32525L3.52994 7.32525L9.04036 1.81484C9.32565 1.55724 9.4459 1.16345 9.35318 0.790419C9.26045 0.417385 8.96983 0.125731 8.59712 0.031687C8.22442 -0.0623567 7.83021 0.0564952 7.57161 0.340878L0.279939 7.63254C0.229548 7.67838 0.185731 7.73096 0.149731 7.78879C0.132147 7.81542 0.116482 7.84327 0.102856 7.87213C0.102856 7.90338 0.0663976 7.93463 0.0507726 7.97109L0.0195226 8.07525C0.0172175 8.10472 0.0172175 8.13433 0.0195226 8.1638C-0.00650752 8.29971 -0.00650752 8.43934 0.0195226 8.57525C0.0178923 8.60474 0.0178923 8.6343 0.0195226 8.66379L0.0507726 8.76796C0.0507726 8.80442 0.0872309 8.83567 0.102856 8.86692C0.116543 8.89408 0.13221 8.92019 0.149731 8.94505C0.185571 9.00153 0.227487 9.05393 0.274731 9.1013L0.274731 9.1013L7.5664 16.393C7.97342 16.8 8.63333 16.8 9.04036 16.393C9.44738 15.9859 9.44738 15.326 9.04036 14.919L3.52994 9.40859L21.8476 9.40859C22.4229 9.40859 22.8893 8.94222 22.8893 8.36692C22.8893 7.79162 22.4229 7.32525 21.8476 7.32525Z" id="Path" fill="#222222" fill-rule="evenodd" stroke="none" />
</svg>