<?xml version="1.0" encoding="utf-8"?>
<svg width="39px" height="39px" viewBox="0 0 39 39" version="1.1" xmlns:xlink="http://www.w3.org/1999/xlink" xmlns="http://www.w3.org/2000/svg">
  <g id="Group-2">
    <path d="M19.0789 38.0952C17.7998 38.092 16.5241 37.9645 15.2697 37.7143C7.23068 36.0878 1.13578 29.4975 0.141229 21.3561C-0.853318 13.2147 3.47589 5.35094 10.887 1.83707C18.298 -1.6768 27.1263 -0.0515221 32.8001 5.87125C38.474 11.794 39.7188 20.684 35.8901 27.9374C35.5506 28.5706 35.4953 29.318 35.7378 29.9944L38.0487 36.343C38.2157 36.806 38.1001 37.3237 37.7521 37.6717C37.4041 38.0197 36.8864 38.1353 36.4234 37.9683L30.0748 35.6574L30.0748 35.6574C29.3984 35.4149 28.651 35.4702 28.0178 35.8097C25.2738 37.3011 22.202 38.0865 19.0789 38.0952ZM19.0789 2.54277C12.2105 2.54279 6.05982 6.79601 3.63516 13.2222C1.2105 19.6485 3.0186 26.9046 8.17514 31.4417C13.3317 35.9788 20.7589 36.8486 26.8243 33.6258C28.0925 32.951 29.5873 32.8449 30.9382 33.3337L34.7474 34.7051L33.3761 30.8959C32.8872 29.545 32.9933 28.0502 33.6681 26.7819C36.221 21.9626 36.2287 16.1934 33.6887 11.3673C31.1486 6.54114 26.3887 3.28118 20.9708 2.65705C20.3428 2.58383 19.7112 2.54568 19.0789 2.54277Z" id="Shape" fill="#222222" stroke="none" />
    <path d="M18.4471 2.45962L1.22981 2.45962C0.550604 2.45962 0 1.90901 0 1.22981C0 0.550604 0.550604 0 1.22981 0L18.4471 0C19.1263 0 19.6769 0.550604 19.6769 1.22981C19.6769 1.90901 19.1263 2.45962 18.4471 2.45962Z" transform="translate(8.640564 14.760925)" id="Path" fill="#222222" fill-rule="evenodd" stroke="none" />
    <path d="M13.5279 2.45962L1.22981 2.45962C0.550604 2.45962 0 1.90901 0 1.22981C0 0.550604 0.550604 0 1.22981 0L13.5279 0C14.2071 0 14.7577 0.550604 14.7577 1.22981C14.7577 1.90901 14.2071 2.45962 13.5279 2.45962Z" transform="translate(11.100159 20.909943)" id="Path" fill="#222222" fill-rule="evenodd" stroke="none" />
  </g>
</svg>