<?xml version="1.0" encoding="utf-8"?>
<svg width="30px" height="30px" viewbox="0 0 30 30" version="1.1" xmlns:xlink="http://www.w3.org/1999/xlink" xmlns="http://www.w3.org/2000/svg">
  <g id="Icons-Check-ON">
    <path d="M23.7564 10.932L13.488 20.892C13.3134 21.06 13.0872 21.144 12.8616 21.144C12.6312 21.144 12.4008 21.06 12.225 20.88L8.2242 16.884C7.8726 16.53 7.8726 15.96 8.2242 15.606C8.5758 15.258 9.1452 15.258 9.4968 15.606L12.8712 18.984L22.5036 9.642C22.86 9.294 23.4288 9.306 23.7762 9.66C24.1218 10.02 24.1134 10.59 23.7564 10.932ZM15 0C6.7158 0 0 6.714 0 15C0 23.28 6.7158 30 15 30C23.2842 30 30 23.28 30 15C30 6.714 23.2842 0 15 0L15 0Z" id="Fill-119-Copy-8" fill="#6AC2BD" fill-rule="evenodd" stroke="none" />
  </g>
</svg>