<?xml version="1.0" encoding="utf-8"?>
<svg width="20px" height="20px" viewbox="0 0 20 20" version="1.1" xmlns:xlink="http://www.w3.org/1999/xlink" xmlns="http://www.w3.org/2000/svg">
  <defs>
    <path d="M4.999 0L15.001 0Q15.1237 0 15.2463 0.00602151Q15.3689 0.012043 15.491 0.0240715Q15.6131 0.0361001 15.7345 0.0541066Q15.8559 0.0721132 15.9763 0.0960544Q16.0966 0.119996 16.2157 0.149814Q16.3347 0.179632 16.4521 0.215255Q16.5696 0.250879 16.6851 0.292221Q16.8007 0.333564 16.914 0.380526Q17.0274 0.427489 17.1383 0.479957Q17.2493 0.532426 17.3575 0.590276Q17.4657 0.648125 17.571 0.711215Q17.6763 0.774305 17.7783 0.842483Q17.8803 0.910662 17.9789 0.983765Q18.0775 1.05687 18.1723 1.13472Q18.2672 1.21257 18.3581 1.29499Q18.4491 1.3774 18.5358 1.46417Q18.6226 1.55095 18.705 1.64188Q18.7874 1.73281 18.8653 1.82767Q18.9431 1.92253 19.0162 2.0211Q19.0893 2.11967 19.1575 2.2217Q19.2257 2.32374 19.2888 2.429Q19.3519 2.53426 19.4097 2.64249Q19.4676 2.75072 19.52 2.86165Q19.5725 2.97259 19.6195 3.08597Q19.6664 3.19934 19.7078 3.31489Q19.7491 3.43043 19.7847 3.54787Q19.8204 3.6653 19.8502 3.78434Q19.88 3.90338 19.9039 4.02374Q19.9279 4.1441 19.9459 4.26549Q19.9639 4.38688 19.9759 4.50901Q19.988 4.63114 19.994 4.75371Q20 4.87628 20 4.999L20 15.001Q20 15.1237 19.994 15.2463Q19.988 15.3689 19.9759 15.491Q19.9639 15.6131 19.9459 15.7345Q19.9279 15.8559 19.9039 15.9763Q19.88 16.0966 19.8502 16.2157Q19.8204 16.3347 19.7847 16.4521Q19.7491 16.5696 19.7078 16.6851Q19.6664 16.8007 19.6195 16.914Q19.5725 17.0274 19.52 17.1383Q19.4676 17.2493 19.4097 17.3575Q19.3519 17.4657 19.2888 17.571Q19.2257 17.6763 19.1575 17.7783Q19.0893 17.8803 19.0162 17.9789Q18.9431 18.0775 18.8653 18.1723Q18.7874 18.2672 18.705 18.3581Q18.6226 18.4491 18.5358 18.5358Q18.4491 18.6226 18.3581 18.705Q18.2672 18.7874 18.1723 18.8653Q18.0775 18.9431 17.9789 19.0162Q17.8803 19.0893 17.7783 19.1575Q17.6763 19.2257 17.571 19.2888Q17.4657 19.3519 17.3575 19.4097Q17.2493 19.4676 17.1383 19.52Q17.0274 19.5725 16.914 19.6195Q16.8007 19.6664 16.6851 19.7078Q16.5696 19.7491 16.4521 19.7847Q16.3347 19.8204 16.2157 19.8502Q16.0966 19.88 15.9763 19.9039Q15.8559 19.9279 15.7345 19.9459Q15.6131 19.9639 15.491 19.9759Q15.3689 19.988 15.2463 19.994Q15.1237 20 15.001 20L4.999 20Q4.87628 20 4.75371 19.994Q4.63114 19.988 4.50901 19.9759Q4.38688 19.9639 4.26549 19.9459Q4.1441 19.9279 4.02374 19.9039Q3.90338 19.88 3.78434 19.8502Q3.6653 19.8204 3.54787 19.7847Q3.43043 19.7491 3.31489 19.7078Q3.19934 19.6664 3.08597 19.6195Q2.97259 19.5725 2.86165 19.52Q2.75072 19.4676 2.64249 19.4097Q2.53426 19.3519 2.429 19.2888Q2.32374 19.2257 2.2217 19.1575Q2.11967 19.0893 2.0211 19.0162Q1.92253 18.9431 1.82767 18.8653Q1.73281 18.7874 1.64188 18.705Q1.55095 18.6226 1.46417 18.5358Q1.3774 18.4491 1.29499 18.3581Q1.21257 18.2672 1.13472 18.1723Q1.05687 18.0775 0.983765 17.9789Q0.910662 17.8803 0.842483 17.7783Q0.774305 17.6763 0.711215 17.571Q0.648125 17.4657 0.590276 17.3575Q0.532426 17.2493 0.479957 17.1383Q0.427489 17.0274 0.380526 16.914Q0.333564 16.8007 0.292221 16.6851Q0.250879 16.5696 0.215255 16.4521Q0.179632 16.3347 0.149814 16.2157Q0.119996 16.0966 0.0960544 15.9763Q0.0721132 15.8559 0.0541066 15.7345Q0.0361001 15.6131 0.0240715 15.491Q0.012043 15.3689 0.00602151 15.2463Q0 15.1237 0 15.001L0 4.999Q0 4.87628 0.00602151 4.75371Q0.012043 4.63114 0.0240715 4.50901Q0.0361001 4.38688 0.0541066 4.26549Q0.0721132 4.1441 0.0960544 4.02374Q0.119996 3.90338 0.149814 3.78434Q0.179632 3.6653 0.215255 3.54787Q0.250879 3.43043 0.292221 3.31489Q0.333564 3.19934 0.380526 3.08597Q0.427489 2.97259 0.479957 2.86165Q0.532426 2.75072 0.590276 2.64249Q0.648125 2.53426 0.711215 2.429Q0.774305 2.32374 0.842483 2.2217Q0.910662 2.11967 0.983765 2.0211Q1.05687 1.92253 1.13472 1.82767Q1.21257 1.73281 1.29499 1.64188Q1.3774 1.55095 1.46417 1.46417Q1.55095 1.3774 1.64188 1.29499Q1.73281 1.21257 1.82767 1.13472Q1.92253 1.05687 2.0211 0.983765Q2.11967 0.910662 2.2217 0.842483Q2.32374 0.774305 2.429 0.711215Q2.53426 0.648125 2.64249 0.590276Q2.75072 0.532426 2.86165 0.479957Q2.97259 0.427489 3.08597 0.380526Q3.19934 0.333564 3.31489 0.292221Q3.43043 0.250879 3.54787 0.215255Q3.6653 0.179632 3.78434 0.149814Q3.90338 0.119996 4.02374 0.0960544Q4.1441 0.0721132 4.26549 0.0541066Q4.38688 0.0361001 4.50901 0.0240715Q4.63114 0.012043 4.75371 0.00602151Q4.87628 0 4.999 0Z" id="path_1" />
    <clipPath id="clip_1">
      <use xlink:href="#path_1" />
    </clipPath>
  </defs>
  <g id="Icon-Add-Photo">
    <g id="Rectangle">
      <g clip-path="url(#clip_1)">
        <use xlink:href="#path_1" fill="none" stroke="#222222" stroke-width="3" />
      </g>
    </g>
    <path d="M1.66667 3.33333C2.58714 3.33333 3.33333 2.58714 3.33333 1.66667C3.33333 0.746192 2.58714 0 1.66667 0C0.746192 0 0 0.746192 0 1.66667C0 2.58714 0.746192 3.33333 1.66667 3.33333Z" transform="translate(5 5)" id="Oval" fill="#222222" fill-rule="evenodd" stroke="none" />
    <path d="M-2.11268e-12 6L4 2.08333L8.16667 5.41667L14 0L18 3.5" transform="translate(1 10)" id="Path-3" fill="none" fill-rule="evenodd" stroke="#222222" stroke-width="1.5" stroke-linecap="round" stroke-linejoin="round" />
  </g>
</svg>