<?xml version="1.0" encoding="utf-8"?>
<svg width="50px" height="25px" viewBox="0 0 50 25" version="1.1" xmlns:xlink="http://www.w3.org/1999/xlink" xmlns="http://www.w3.org/2000/svg">
  <path d="M29.989 20.8716C30.9992 21.7101 32.065 22.493 33.2571 23.0537C34.5755 23.675 35.909 24.0639 37.3688 24.17C38.5507 24.2559 39.7832 24.0993 40.9299 23.8114C45.3547 22.69 48.9966 18.8966 49.7846 14.3757C49.9917 13.1786 50.0725 11.9714 49.921 10.7641C49.8351 10.1075 49.7392 9.45586 49.5573 8.81435C49.3805 8.19305 49.1381 7.59196 48.8754 7.00097C47.9662 4.94513 46.3852 3.21257 44.5263 1.96997C42.5968 0.681913 40.2277 0 37.9143 0C35.616 0.0050512 33.3834 0.858705 31.5144 2.16697C29.6354 3.48533 28.0341 5.12192 26.5642 6.87469C25.1903 8.52138 23.8871 10.2337 22.5889 11.9461C22.2859 12.3451 21.9878 12.7391 21.6797 13.1331C21.7858 12.9967 21.8919 12.8604 21.9979 12.724C20.4169 14.7798 18.7349 16.7953 16.6841 18.3914C16.8205 18.2854 16.9568 18.1793 17.0932 18.0732C16.2396 18.7349 15.3203 19.3108 14.3252 19.7351C14.4868 19.6694 14.6484 19.5987 14.8101 19.533C14.0878 19.8361 13.3402 20.0533 12.5623 20.1543C12.7391 20.1291 12.9209 20.1038 13.0977 20.0836C12.3198 20.1846 11.5319 20.1644 10.754 20.0634C10.9308 20.0886 11.1126 20.1139 11.2894 20.1341C10.4105 20.0129 9.55178 19.7856 8.73349 19.4421C8.89512 19.5078 9.05676 19.5785 9.2184 19.6441C8.42031 19.3057 7.66768 18.8713 6.98072 18.346C7.1171 18.452 7.25348 18.5581 7.38986 18.6642C6.6928 18.1237 6.06645 17.4974 5.52597 16.8003C5.63205 16.9367 5.73812 17.0731 5.8442 17.2095C5.31887 16.5174 4.87942 15.7699 4.54604 14.9718C4.6117 15.1334 4.68242 15.295 4.74809 15.4567C4.40965 14.6384 4.1773 13.7797 4.05607 12.9008C4.08133 13.0776 4.10658 13.2594 4.12679 13.4362C4.01061 12.5522 4.01061 11.6582 4.12679 10.7692C4.10153 10.946 4.07627 11.1278 4.05607 11.3046C4.1773 10.4257 4.4046 9.56698 4.74809 8.74869C4.68242 8.91033 4.6117 9.07196 4.54604 9.2336C4.88447 8.43551 5.31887 7.68288 5.8442 6.99592C5.73812 7.1323 5.63205 7.26868 5.52597 7.40507C6.06645 6.708 6.6928 6.08165 7.38986 5.54117C7.25348 5.64725 7.1171 5.75332 6.98072 5.8594C7.67273 5.33407 8.42031 4.89462 9.2184 4.56124C9.05676 4.6269 8.89512 4.69762 8.73349 4.76329C9.55178 4.42486 10.4105 4.1925 11.2894 4.07127C11.1126 4.09653 10.9308 4.12178 10.754 4.14199C11.5319 4.04096 12.3198 4.02076 13.0977 4.12178C12.9209 4.09653 12.7391 4.07127 12.5623 4.05107C13.325 4.15714 14.0625 4.36424 14.7747 4.66226C14.6131 4.5966 14.4515 4.52588 14.2898 4.46021C15.2596 4.87441 16.1588 5.4351 16.9922 6.0766C16.8558 5.97052 16.7194 5.86445 16.5831 5.75837C17.7448 6.65749 18.7854 7.70309 19.7603 8.80425C20.0936 9.17804 20.6998 9.39524 21.1898 9.39524C21.6848 9.39524 22.2758 9.17299 22.6192 8.80425C23.3971 7.9607 23.3719 6.79387 22.6192 5.94527C21.0029 4.12683 19.1491 2.36901 16.9619 1.2628C16.3507 0.954678 15.7092 0.681913 15.0525 0.474813C14.3908 0.262663 13.7089 0.156587 13.0169 0.0757681C11.8501 -0.0606145 10.6428 0.0656657 9.50127 0.298021C5.17239 1.19208 1.59108 4.65721 0.424254 8.90022C-0.767831 13.2089 0.595995 18.0682 3.96515 21.0585C5.59669 22.5082 7.61212 23.579 9.76898 23.9629C10.4155 24.0791 11.0722 24.165 11.7288 24.1852C12.3704 24.2054 12.9967 24.1397 13.6332 24.0538C14.7192 23.9023 15.7395 23.5285 16.7346 23.0638C17.7549 22.5839 18.6591 21.9374 19.5431 21.2504C20.3614 20.614 21.119 19.9118 21.8313 19.1643C23.3163 17.6186 24.6246 15.9113 25.9227 14.204C26.1955 13.8403 26.4683 13.4817 26.7461 13.118C26.64 13.2544 26.5339 13.3907 26.4279 13.5271C28.0948 11.4056 29.701 9.21845 31.6306 7.3192C32.1913 6.76861 32.7772 6.24329 33.3985 5.75837C33.2621 5.86445 33.1258 5.97052 32.9894 6.0766C33.8228 5.4351 34.7169 4.87441 35.6817 4.45516C35.52 4.52083 35.3584 4.59154 35.1968 4.65721C35.914 4.35414 36.6616 4.13694 37.4344 4.03591C37.2576 4.06117 37.0758 4.08642 36.899 4.10663C37.6769 4.00561 38.4649 4.02581 39.2428 4.12683C39.066 4.10158 38.8841 4.07632 38.7073 4.05612C39.5862 4.17735 40.445 4.40465 41.2632 4.74813C41.1016 4.68247 40.94 4.61175 40.7783 4.54608C41.5764 4.88451 42.3291 5.31892 43.016 5.84424C42.8796 5.73817 42.7432 5.63209 42.6069 5.52602C43.3039 6.0665 43.9303 6.69285 44.4708 7.38991C44.3647 7.25353 44.2586 7.11715 44.1525 6.98076C44.6779 7.67278 45.1173 8.42036 45.4507 9.21845C45.385 9.05681 45.3143 8.89517 45.2486 8.73353C45.5871 9.55183 45.8194 10.4105 45.9407 11.2894C45.9154 11.1126 45.8901 10.9308 45.8699 10.754C45.9861 11.638 45.9861 12.532 45.8699 13.4211C45.8952 13.2443 45.9205 13.0624 45.9407 12.8856C45.8194 13.7645 45.5921 14.6232 45.2486 15.4415C45.3143 15.2799 45.385 15.1183 45.4507 14.9566C45.1123 15.7547 44.6779 16.5073 44.1525 17.1943C44.2586 17.0579 44.3647 16.9215 44.4708 16.7852C43.9303 17.4822 43.3039 18.1086 42.6069 18.649C42.7432 18.543 42.8796 18.4369 43.016 18.3308C42.324 18.8561 41.5764 19.2956 40.7783 19.629C40.94 19.5633 41.1016 19.4926 41.2632 19.4269C40.445 19.7654 39.5862 19.9977 38.7073 20.1189C38.8841 20.0937 39.066 20.0684 39.2428 20.0482C38.4649 20.1493 37.6819 20.1695 36.9041 20.0684C37.0808 20.0937 37.2627 20.1189 37.4395 20.1392C36.6515 20.0331 35.8888 19.8108 35.1614 19.5027C35.323 19.5684 35.4847 19.6391 35.6463 19.7048C34.6765 19.2855 33.7824 18.7248 32.9439 18.0833C33.0803 18.1894 33.2167 18.2955 33.3531 18.4015C32.1913 17.5024 31.1507 16.4669 30.1809 15.3708C29.8475 14.997 29.2414 14.7798 28.7514 14.7798C28.2564 14.7798 27.6654 15.0021 27.3219 15.3708C26.5491 16.2396 26.5693 17.4065 27.3219 18.25C28.1503 19.1794 29.0292 20.0735 29.989 20.8716Z" id="Path" fill="#FFFFFF" fill-rule="evenodd" stroke="none" />
</svg>