<?xml version="1.0" encoding="utf-8"?>
<svg width="12px" height="12px" viewBox="0 0 12 12" version="1.1" xmlns:xlink="http://www.w3.org/1999/xlink" xmlns="http://www.w3.org/2000/svg">
  <path d="M5.6 0C5.1418 0 4.77037 0.371446 4.77037 0.82963L4.77037 4.77036L0.82963 4.77036C0.371446 4.77036 0 5.14178 0 5.59999C0 6.05819 0.371446 6.42962 0.82963 6.42962L4.77037 6.42962L4.77037 10.3704C4.77037 10.8286 5.1418 11.2 5.6 11.2C6.0582 11.2 6.42963 10.8286 6.42963 10.3704L6.42963 6.42962L10.3704 6.42962C10.8286 6.42962 11.2 6.05819 11.2 5.59999C11.2 5.14178 10.8286 4.77036 10.3704 4.77036L6.42963 4.77036L6.42963 0.82963C6.42963 0.371446 6.0582 0 5.6 0Z" id="Path" fill="#222222" fill-rule="evenodd" stroke="none" />
</svg>