<?xml version="1.0" encoding="utf-8"?>
<svg width="8px" height="8px" viewbox="0 0 8 8" version="1.1" xmlns:xlink="http://www.w3.org/1999/xlink" xmlns="http://www.w3.org/2000/svg">
  <g id="Icon-Add">
    <path d="M3.71429 0C3.41037 0 3.16402 0.246367 3.16402 0.550265L3.16402 3.16402L0.550264 3.16402C0.246367 3.16402 0 3.41037 0 3.71428C0 4.01819 0.246367 4.26454 0.550264 4.26454L3.16402 4.26454L3.16402 6.87831C3.16402 7.18221 3.41037 7.42858 3.71429 7.42858C4.0182 7.42858 4.26455 7.18221 4.26455 6.87831L4.26455 4.26454L6.87831 4.26454C7.1822 4.26454 7.42857 4.01819 7.42857 3.71428C7.42857 3.41037 7.1822 3.16402 6.87831 3.16402L4.26455 3.16402L4.26455 0.550265C4.26455 0.246367 4.0182 0 3.71429 0Z" transform="translate(0 0.13756202)" id="Path" fill="#222222" fill-rule="evenodd" stroke="none" />
  </g>
</svg>