<?xml version="1.0" encoding="utf-8"?>
<svg width="20px" height="33px" viewbox="0 0 20 33" version="1.1" xmlns:xlink="http://www.w3.org/1999/xlink" xmlns="http://www.w3.org/2000/svg">
  <defs>
    <filter filterUnits="userSpaceOnUse" color-interpolation-filters="sRGB" id="filter_1">
      <feFlood flood-opacity="0" result="BackgroundImageFix" />
      <feColorMatrix in="SourceAlpha" type="matrix" values="0 0 0 0 0 0 0 0 0 0 0 0 0 0 0 0 0 0 127 0" />
      <feOffset dx="0" dy="1" />
      <feGaussianBlur stdDeviation="1.5" />
      <feColorMatrix type="matrix" values="0 0 0 0 0 0 0 0 0 0 0 0 0 0 0 0 0 0 0.078431375 0" />
      <feBlend mode="normal" in2="BackgroundImageFix" result="effect0_dropShadow" />
      <feColorMatrix in="SourceAlpha" type="matrix" values="0 0 0 0 0 0 0 0 0 0 0 0 0 0 0 0 0 0 127 0" />
      <feOffset dx="0" dy="1" />
      <feGaussianBlur stdDeviation="0.5" />
      <feColorMatrix type="matrix" values="0 0 0 0 0 0 0 0 0 0 0 0 0 0 0 0 0 0 0.101960786 0" />
      <feBlend mode="normal" in2="effect0_dropShadow" result="effect1_dropShadow" />
      <feColorMatrix in="SourceAlpha" type="matrix" values="0 0 0 0 0 0 0 0 0 0 0 0 0 0 0 0 0 0 127 0" />
      <feOffset dx="0" dy="0" />
      <feGaussianBlur stdDeviation="0.5" />
      <feColorMatrix type="matrix" values="0 0 0 0 0 0 0 0 0 0 0 0 0 0 0 0 0 0 0.10980392 0" />
      <feBlend mode="normal" in2="effect1_dropShadow" result="effect2_dropShadow" />
      <feColorMatrix in="SourceAlpha" type="matrix" values="0 0 0 0 0 0 0 0 0 0 0 0 0 0 0 0 0 0 127 0" />
      <feOffset dx="0" dy="0" />
      <feGaussianBlur stdDeviation="0.5" />
      <feColorMatrix type="matrix" values="0 0 0 0 0 0 0 0 0 0 0 0 0 0 0 0 0 0 0.07058824 0" />
      <feBlend mode="normal" in2="effect2_dropShadow" result="effect3_dropShadow" />
      <feBlend mode="normal" in="SourceGraphic" in2="effect3_dropShadow" result="shape" />
    </filter>
    <path d="M0 9.799L0 9.801Q0 10.0416 0.0118033 10.2818Q0.0236066 10.5221 0.0471849 10.7615Q0.0707631 11.0009 0.106059 11.2388Q0.141356 11.4768 0.188285 11.7127Q0.235214 11.9486 0.293664 12.182Q0.352113 12.4153 0.421942 12.6455Q0.49177 12.8757 0.57281 13.1022Q0.653849 13.3287 0.745904 13.5509Q0.83796 13.7732 0.940809 13.9906Q1.04366 14.2081 1.15705 14.4202Q1.27045 14.6324 1.39412 14.8387Q1.51779 15.045 1.65143 15.245Q1.78507 15.445 1.92837 15.6383Q2.07167 15.8315 2.22427 16.0174Q2.37687 16.2034 2.53842 16.3816Q2.69996 16.5598 2.87006 16.7299Q3.04016 16.9 3.21839 17.0616Q3.39663 17.2231 3.58258 17.3757Q3.76853 17.5283 3.96174 17.6716Q4.15496 17.8149 4.35497 17.9486Q4.55498 18.0822 4.76131 18.2059Q4.96763 18.3295 5.17978 18.4429Q5.39193 18.5563 5.60939 18.6592Q5.82684 18.762 6.04908 18.8541Q6.27133 18.9461 6.49782 19.0272Q6.72431 19.1082 6.9545 19.1781Q7.18469 19.2479 7.41804 19.3063Q7.65138 19.3648 7.88731 19.4117Q8.12324 19.4586 8.36119 19.4939Q8.59914 19.5292 8.83853 19.5528Q9.07792 19.5764 9.31818 19.5882Q9.55845 19.6 9.799 19.6L22.2203 19.6Q22.4609 19.6 22.7012 19.5882Q22.9414 19.5764 23.1808 19.5528Q23.4202 19.5292 23.6582 19.4939Q23.8961 19.4586 24.132 19.4117Q24.368 19.3648 24.6013 19.3063Q24.8346 19.2479 25.0648 19.1781Q25.295 19.1082 25.5215 19.0272Q25.748 18.9462 25.9703 18.8541Q26.1925 18.762 26.41 18.6592Q26.6274 18.5563 26.8396 18.4429Q27.0517 18.3296 27.258 18.2059Q27.4644 18.0822 27.6644 17.9486Q27.8644 17.8149 28.0576 17.6716Q28.2508 17.5283 28.4368 17.3757Q28.6227 17.2231 28.8009 17.0616Q28.9792 16.9 29.1493 16.7299Q29.3194 16.5598 29.4809 16.3816Q29.6425 16.2034 29.7951 16.0174Q29.9477 15.8315 30.091 15.6383Q30.2343 15.445 30.3679 15.245Q30.5016 15.045 30.6252 14.8387Q30.7489 14.6324 30.8623 14.4202Q30.9757 14.2081 31.0785 13.9906Q31.1814 13.7732 31.2734 13.5509Q31.3655 13.3287 31.4465 13.1022Q31.5276 12.8757 31.5974 12.6455Q31.6672 12.4153 31.7257 12.182Q31.7841 11.9486 31.8311 11.7127Q31.878 11.4768 31.9133 11.2388Q31.9486 11.0009 31.9722 10.7615Q31.9957 10.5221 32.0075 10.2818Q32.0193 10.0416 32.0193 9.801L32.0193 9.799Q32.0193 9.55845 32.0075 9.31818Q31.9957 9.07792 31.9722 8.83853Q31.9486 8.59914 31.9133 8.36119Q31.878 8.12324 31.8311 7.88731Q31.7841 7.65138 31.7257 7.41804Q31.6672 7.18469 31.5974 6.9545Q31.5276 6.72431 31.4465 6.49782Q31.3655 6.27133 31.2734 6.04908Q31.1814 5.82684 31.0785 5.60939Q30.9757 5.39193 30.8623 5.17978Q30.7489 4.96764 30.6252 4.76131Q30.5016 4.55498 30.3679 4.35497Q30.2343 4.15496 30.091 3.96174Q29.9477 3.76853 29.7951 3.58258Q29.6425 3.39663 29.4809 3.21839Q29.3194 3.04016 29.1493 2.87006Q28.9792 2.69996 28.8009 2.53842Q28.6227 2.37687 28.4368 2.22427Q28.2508 2.07167 28.0576 1.92837Q27.8644 1.78507 27.6644 1.65143Q27.4644 1.51779 27.258 1.39412Q27.0517 1.27045 26.8396 1.15705Q26.6274 1.04366 26.41 0.940809Q26.1925 0.83796 25.9703 0.745904Q25.748 0.653849 25.5215 0.57281Q25.295 0.49177 25.0648 0.421942Q24.8346 0.352113 24.6013 0.293664Q24.368 0.235214 24.132 0.188285Q23.8961 0.141356 23.6582 0.106059Q23.4202 0.0707631 23.1808 0.0471849Q22.9414 0.0236066 22.7012 0.0118033Q22.4609 0 22.2203 0L9.799 0Q9.55845 0 9.31818 0.0118033Q9.07792 0.0236066 8.83853 0.0471849Q8.59914 0.0707631 8.36119 0.106059Q8.12324 0.141356 7.88731 0.188285Q7.65138 0.235214 7.41804 0.293664Q7.18469 0.352113 6.9545 0.421942Q6.72431 0.49177 6.49782 0.57281Q6.27133 0.653849 6.04908 0.745904Q5.82684 0.83796 5.60939 0.940809Q5.39193 1.04366 5.17978 1.15705Q4.96764 1.27045 4.76131 1.39412Q4.55498 1.51779 4.35497 1.65143Q4.15496 1.78507 3.96174 1.92837Q3.76853 2.07167 3.58258 2.22427Q3.39663 2.37687 3.21839 2.53842Q3.04016 2.69996 2.87006 2.87006Q2.69996 3.04016 2.53842 3.21839Q2.37687 3.39663 2.22427 3.58258Q2.07167 3.76853 1.92837 3.96174Q1.78507 4.15496 1.65143 4.35497Q1.51779 4.55498 1.39412 4.76131Q1.27045 4.96763 1.15705 5.17978Q1.04366 5.39193 0.940809 5.60939Q0.83796 5.82684 0.745904 6.04908Q0.653849 6.27133 0.57281 6.49782Q0.49177 6.72431 0.421942 6.9545Q0.352113 7.18469 0.293664 7.41804Q0.235214 7.65138 0.188285 7.88731Q0.141356 8.12324 0.106059 8.36119Q0.0707631 8.59914 0.0471849 8.83853Q0.0236066 9.07792 0.0118033 9.31818Q0 9.55845 0 9.799Z" id="path_1" />
    <clipPath id="clip_1">
      <use xlink:href="#path_1" />
    </clipPath>
  </defs>
  <g id="UISwitchOff-Copy-2" transform="matrix(9.934766E-08 1 1 -9.934766E-08 0 0)">
    <g id="Background">
      <use stroke="none" fill="#43CB6F" xlink:href="#path_1" fill-rule="evenodd" />
      <g clip-path="url(#clip_1)">
        <use xlink:href="#path_1" fill="none" stroke="#43CB6F" stroke-width="1.26" />
      </g>
    </g>
    <path d="M8.78962 17.7032C13.644 17.7032 17.5792 13.7402 17.5792 8.85161C17.5792 3.963 13.644 0 8.78962 0C3.93525 0 0 3.963 0 8.85161C0 13.7402 3.93525 17.7032 8.78962 17.7032Z" transform="translate(0.94189453 0.9483948)" id="Knob" fill="#FFFFFF" fill-rule="evenodd" stroke="none" filter="url(#filter_1)" />
  </g>
</svg>