<?xml version="1.0" encoding="UTF-8"?>
<svg width="644px" height="60px" viewBox="0 0 644 60" version="1.1" xmlns="http://www.w3.org/2000/svg" xmlns:xlink="http://www.w3.org/1999/xlink">
    <title>Group 28</title>
    <defs>
        <polygon id="path-1" points="0 0.8508 58.6503 0.8508 58.6503 55.8698 0 55.8698"></polygon>
        <polygon id="path-3" points="0.9789 0.8344 52.0439 0.8344 52.0439 58 0.9789 58"></polygon>
        <polygon id="path-5" points="0.6495 0.535 53.5215 0.535 53.5215 57.8697 0.6495 57.8697"></polygon>
        <polygon id="path-7" points="0.9377 0.8343 61.1537 0.8343 61.1537 58 0.9377 58"></polygon>
        <polygon id="path-9" points="0.0267602821 0.8503 66.018 0.8503 66.018 56.8179752 0.0267602821 56.8179752"></polygon>
    </defs>
    <g id="Page-1" stroke="none" stroke-width="1" fill="none" fill-rule="evenodd">
        <g id="Group-28">
            <g id="Group-3" transform="translate(0.000000, 2.465500)">
                <mask id="mask-2" fill="white">
                    <use xlink:href="#path-1"></use>
                </mask>
                <g id="Clip-2"></g>
                <path d="M26.1133,3.9008 C20.1253,3.9008 19.3343,4.1268 17.8653,4.3528 C17.3003,7.1768 17.0753,9.0978 17.0753,15.6508 L17.0753,44.2338 C17.0753,50.6728 17.6403,52.9328 29.8413,52.9328 C39.7833,52.9328 50.4033,45.8158 50.4033,31.0148 C50.4033,13.0518 41.4783,3.9008 26.1133,3.9008 M27.4683,55.6438 C24.6443,55.6438 17.1883,55.3058 15.1543,55.3058 C10.4093,55.3058 3.7443,55.4178 0.3543,55.8698 C-0.2107,55.8698 0.0153,54.5148 0.2413,54.5148 C7.8113,53.7238 8.9413,52.1418 8.9413,41.1828 L8.9413,15.6508 C8.9413,4.5788 7.8113,3.1098 0.2413,2.3188 C0.0153,2.2068 -0.2107,0.8508 0.3543,0.8508 C3.7443,1.4158 11.0873,1.5278 15.9453,1.5278 C17.9793,1.5278 25.6613,1.1898 28.5983,1.1898 C48.1433,1.1898 58.6503,12.7138 58.6503,27.6258 C58.6503,42.8778 45.7713,55.6438 27.4683,55.6438" id="Fill-1" fill="#231F20" mask="url(#mask-2)"></path>
            </g>
            <path d="M108.6983,56.5279 C108.3593,57.9969 107.9073,58.2219 106.6643,58.2219 C103.6143,58.2219 98.4173,57.7709 92.3173,57.7709 C83.9563,57.7709 74.0143,57.8829 67.9143,58.3359 C67.4623,58.3359 67.6883,56.9799 67.9143,56.9799 C76.5003,55.9629 77.2913,54.7199 77.2913,43.6489 L77.2913,18.1159 C77.2913,7.0449 76.5003,5.6889 67.9143,4.7849 C67.6883,4.6719 67.4623,3.3159 67.9143,3.3159 C74.0143,3.8809 83.6173,3.9939 91.9773,3.9939 C97.9653,3.9939 103.6143,3.6549 108.1333,3.3159 C107.7943,4.5589 107.6813,7.0449 107.6813,8.7389 C107.6813,9.6429 107.6813,12.1289 107.7943,12.8059 C107.7943,12.9189 106.4383,12.8059 106.3253,12.8059 C105.7603,8.9649 104.4053,6.9309 93.4463,6.9309 L85.9903,6.9309 C85.6513,8.9649 85.4253,12.1289 85.4253,17.6639 L85.4253,28.5099 L91.3003,28.5099 C100.9033,28.5099 101.5803,28.0579 102.3713,24.3299 C102.3713,24.2169 103.7273,23.9909 103.7273,24.3299 C103.3883,25.5719 103.1623,29.1879 103.1623,31.1079 C103.1623,32.1249 103.2753,35.2879 103.2753,36.0789 C103.3883,36.1919 101.9203,36.1919 101.9203,36.0789 C101.1293,31.5599 100.4513,30.9949 91.3003,30.9949 L85.4253,30.9949 L85.4253,42.5189 C85.4253,53.8159 86.3293,54.8339 90.1703,54.8339 L94.4633,54.8339 C107.3433,54.8339 107.6813,52.7989 108.9243,47.1509 C109.0373,47.0379 110.3933,47.0379 110.3933,47.2639 C110.0533,49.4099 109.2633,54.8339 108.6983,56.5279" id="Fill-4" fill="#231F20"></path>
            <g id="Group-8" transform="translate(118.000000, 1.465500)">
                <mask id="mask-4" fill="white">
                    <use xlink:href="#path-3"></use>
                </mask>
                <g id="Clip-7"></g>
                <path d="M50.2359,53.4814 C47.2989,55.7404 42.2149,58.0004 32.0469,58.0004 C13.2929,58.0004 0.9789,45.1204 0.9789,30.6594 C0.9789,15.4074 13.8579,0.8344 32.3859,0.8344 C40.1809,0.8344 48.2029,4.1104 49.8969,5.3534 C50.5749,5.8044 51.3659,13.3744 51.7049,18.4584 C51.7049,18.7964 50.3489,18.7964 50.2359,18.5714 C48.8809,11.9054 42.8929,3.5454 30.4649,3.5454 C17.9249,3.5454 9.3389,12.0184 9.3389,27.3834 C9.3389,46.2504 20.8619,55.2884 32.8379,55.2884 C41.5369,55.2884 50.0099,49.0744 50.6879,40.2624 C50.6879,40.1494 52.0439,40.0364 52.0439,40.3754 C51.7049,45.5724 50.9139,53.0284 50.2359,53.4814" id="Fill-6" fill="#231F20" mask="url(#mask-4)"></path>
            </g>
            <path d="M220.2056,56.5279 C219.7536,57.9969 219.4146,58.2219 218.1716,58.2219 C215.1216,58.2219 210.6026,57.7709 204.5016,57.7709 C196.1416,57.7709 185.4096,57.8829 179.4216,58.3359 C178.8566,58.3359 179.1956,56.9799 179.3086,56.9799 C187.8946,55.9629 188.7986,54.7199 188.7986,43.6489 L188.7986,18.1159 C188.7986,7.0449 187.6686,5.5759 180.0996,4.7849 C179.8726,4.6719 179.6466,3.3159 180.2116,3.3159 C183.6016,3.8809 189.0246,3.9939 193.7686,3.9939 C197.2716,3.9939 202.9206,3.6549 205.5186,3.3159 C205.9706,3.3159 205.7446,4.6719 205.6316,4.7849 C197.7236,5.3499 196.8196,7.7219 196.8196,18.1159 L196.8196,42.8579 C196.8196,51.4439 197.7236,54.6069 202.0166,54.6069 L205.9706,54.6069 C219.0756,54.6069 219.7536,52.2349 220.7706,47.3769 C220.7706,47.1509 222.2396,47.1509 222.1256,47.3769 C221.9006,49.7489 220.6576,54.8339 220.2056,56.5279" id="Fill-9" fill="#231F20"></path>
            <path d="M252.6299,14.5006 L243.7049,34.8366 L259.9729,34.8366 L252.6299,14.5006 Z M273.6439,57.7716 C268.8989,57.7716 263.0239,57.8836 259.5219,58.3356 C259.0689,58.3356 259.2959,56.9796 259.5219,56.9796 C263.5879,56.5276 265.8479,56.7536 265.8479,54.3816 C265.8479,51.7826 264.6059,47.8286 263.0239,43.6486 L260.8769,37.4356 L242.6879,37.4356 L240.0889,43.6486 C237.9429,48.6196 236.6999,52.0086 236.6999,54.2686 C236.6999,56.3026 238.8469,56.6406 242.6879,56.9796 C243.0269,56.9796 243.1399,58.3356 242.6879,58.3356 C240.2029,57.9966 236.6999,57.7716 233.1979,57.7716 C228.4529,57.7716 227.6619,57.8836 224.0469,58.3356 C223.5949,58.3356 223.8209,56.9796 224.0469,56.9796 C229.6959,56.5276 232.6329,53.2516 236.9259,43.6486 L255.1149,2.6386 C255.2289,2.2996 255.9059,2.2996 256.0189,2.6386 L271.7229,43.6486 C274.8859,52.1216 276.5809,56.3026 284.7149,56.9796 C284.9409,56.9796 285.1669,58.3356 284.7149,58.3356 C282.1169,57.9966 277.2589,57.7716 273.6439,57.7716 L273.6439,57.7716 Z" id="Fill-11" fill="#231F20"></path>
            <path d="M309.6832,5.8014 C308.3272,5.8014 308.1012,5.9144 306.6332,6.0274 C306.1812,7.6094 305.8422,10.8854 305.8422,17.3254 L305.8422,31.3344 C307.1982,31.3344 307.7632,31.4474 309.3442,31.4474 C320.5292,31.4474 324.8222,26.9284 324.8222,19.0194 C324.8222,9.3034 319.3992,5.8014 309.6832,5.8014 M315.7842,33.1414 C313.8632,33.5934 311.2652,33.9324 309.4572,33.9324 C307.6492,33.9324 307.1982,33.9324 305.8422,33.8204 L305.8422,43.6484 C305.8422,54.1554 306.7452,56.3024 314.5412,56.9804 C314.7672,56.9804 314.9932,58.4484 314.5412,58.3354 C311.9422,57.9964 306.2942,57.7714 302.7912,57.7714 C297.9332,57.7714 292.6232,57.8834 289.1212,58.3354 C288.6692,58.4484 288.8952,56.9804 289.1212,56.9804 C296.5782,56.1894 297.8212,54.7204 297.8212,43.6484 L297.8212,18.1154 C297.8212,7.9484 295.9002,5.8014 291.9462,5.8014 C291.0422,5.8014 290.0252,5.9144 288.7832,6.1404 C288.5572,6.2534 288.2182,4.8984 288.6692,4.7844 C292.1722,3.6554 301.7752,3.3164 310.8132,3.3164 C325.2742,3.3164 333.0692,7.9484 333.0692,16.7604 C333.0692,22.4094 329.1152,27.8324 322.6752,30.5434 C326.8552,42.2934 333.6972,57.2214 343.4132,57.2214 C343.6402,57.2214 343.8652,58.5764 343.4132,58.5764 C325.5632,58.5764 319.3992,46.4734 315.7842,33.1414" id="Fill-13" fill="#231F20"></path>
            <path d="M375.7393,14.5006 L366.8143,34.8366 L383.0833,34.8366 L375.7393,14.5006 Z M396.7533,57.7716 C392.0083,57.7716 386.1333,57.8836 382.6313,58.3356 C382.1783,58.3356 382.4043,56.9796 382.6313,56.9796 C386.6983,56.5276 388.9573,56.7536 388.9573,54.3816 C388.9573,51.7826 387.7153,47.8286 386.1333,43.6486 L383.9863,37.4356 L365.7973,37.4356 L363.1993,43.6486 C361.0523,48.6196 359.8093,52.0086 359.8093,54.2686 C359.8093,56.3026 361.9563,56.6406 365.7973,56.9796 C366.1363,56.9796 366.2493,58.3356 365.7973,58.3356 C363.3113,57.9966 359.8093,57.7716 356.3073,57.7716 C351.5623,57.7716 350.7713,57.8836 347.1563,58.3356 C346.7043,58.3356 346.9303,56.9796 347.1563,56.9796 C352.8043,56.5276 355.7423,53.2516 360.0353,43.6486 L378.2243,2.6386 C378.3383,2.2996 379.0153,2.2996 379.1293,2.6386 L394.8323,43.6486 C397.9953,52.1216 399.6903,56.3026 407.8243,56.9796 C408.0513,56.9796 408.2763,58.3356 407.8243,58.3356 C405.2253,57.9966 400.3683,57.7716 396.7533,57.7716 L396.7533,57.7716 Z" id="Fill-15" fill="#231F20"></path>
            <g id="Group-19" transform="translate(410.000000, 0.465500)">
                <mask id="mask-6" fill="white">
                    <use xlink:href="#path-5"></use>
                </mask>
                <g id="Clip-18"></g>
                <path d="M52.7315,8.3867 C52.7315,9.7417 52.8435,12.5667 52.9575,13.6967 C52.9575,13.9227 51.6015,13.8097 51.6015,13.6967 C50.9235,9.8557 47.9865,7.0307 38.9485,7.0307 L31.2655,7.0307 L31.2655,43.1827 C31.2655,53.5767 32.0565,55.8367 39.9645,56.5147 C40.1905,56.5147 40.3035,57.8697 39.8515,57.8697 C37.2535,57.5317 31.6045,57.3057 28.1025,57.3057 C23.3575,57.3057 17.9345,57.4177 14.5445,57.8697 C13.9805,57.8697 14.2065,56.5147 14.4325,56.5147 C22.0025,55.7237 23.1315,54.1417 23.1315,43.1827 L23.1315,7.0307 L15.1105,7.0307 C6.4115,7.0307 3.0215,9.6297 2.0045,13.6967 C2.0045,13.8097 0.6495,13.9227 0.6495,13.6967 C0.9885,11.8887 1.2135,7.4827 1.2135,5.1107 C1.2135,4.2067 1.2135,2.6247 0.7615,0.7037 C0.6495,0.4777 2.1185,0.4777 2.1185,0.7037 C2.6825,3.5287 2.7955,3.8677 15.1105,3.8677 L38.9485,3.8677 C51.1495,3.8677 51.4885,3.6417 52.1665,0.7037 C52.1665,0.4777 53.5215,0.4777 53.5215,0.7037 C53.0705,2.5117 52.7315,5.5617 52.7315,8.3867" id="Fill-17" fill="#231F20" mask="url(#mask-6)"></path>
            </g>
            <path d="M497.6417,58.3356 C495.1567,57.9966 489.3947,57.7716 486.0047,57.7716 C481.1467,57.7716 475.8367,57.8836 472.3347,58.3356 C471.7697,58.3356 472.1087,56.9806 472.2217,56.9806 C479.7907,56.1896 480.9207,54.6066 480.9207,43.6486 L480.9207,18.1156 C480.9207,7.0446 479.7907,5.5756 472.2217,4.7846 C472.1087,4.6716 471.7697,3.3156 472.3347,3.3156 C475.8367,3.8806 481.1467,3.9936 486.0047,3.9936 C489.3947,3.9936 495.1567,3.6546 497.6417,3.3156 C498.2057,3.3156 497.8677,4.6716 497.7537,4.7846 C489.8457,5.3496 489.0547,7.7226 489.0547,18.1156 L489.0547,43.6486 C489.0547,54.0426 489.8457,56.3026 497.7537,56.9806 C497.8677,56.9806 498.2057,58.3356 497.6417,58.3356" id="Fill-20" fill="#231F20"></path>
            <g id="Group-24" transform="translate(508.000000, 1.465500)">
                <mask id="mask-8" fill="white">
                    <use xlink:href="#path-7"></use>
                </mask>
                <g id="Clip-23"></g>
                <path d="M29.9727,3.5453 C17.9967,3.5453 9.2977,11.2273 9.2977,26.7053 C9.2977,45.5723 21.0467,55.2883 32.2317,55.2883 C44.2067,55.2883 52.9067,47.6063 52.9067,32.2413 C52.9067,13.3743 41.1577,3.5453 29.9727,3.5453 M30.3117,58.0003 C13.7037,58.0003 0.9377,44.8943 0.9377,30.3203 C0.9377,15.0683 14.0427,0.8343 31.7807,0.8343 C48.4997,0.8343 61.1537,14.0523 61.1537,28.6263 C61.1537,43.7643 48.1607,58.0003 30.3117,58.0003" id="Fill-22" fill="#231F20" mask="url(#mask-8)"></path>
            </g>
            <g id="Group-27" transform="translate(577.000000, 2.465500)">
                <mask id="mask-10" fill="white">
                    <use xlink:href="#path-9"></use>
                </mask>
                <g id="Clip-26"></g>
                <path d="M57.1143,15.6503 L57.1143,41.1833 C57.1143,45.3633 57.3413,53.0463 57.7923,56.6613 C57.7923,56.8863 56.7753,56.8863 56.3233,56.5473 L14.7483,13.0523 L14.7483,41.1833 C14.7483,50.5593 15.6523,53.8373 23.5603,54.5143 C23.6743,54.5143 23.8993,55.8703 23.4473,55.8703 C20.8493,55.5313 17.7993,55.3053 14.4093,55.3053 C9.5513,55.3053 6.0493,55.4183 2.5473,55.8703 C2.2083,55.8703 2.3213,54.5143 2.5473,54.5143 C10.1163,53.7233 11.2463,51.1253 11.2463,41.1833 L11.2463,12.1483 C11.2463,8.1943 4.2423,2.7713 0.2873,2.3193 C0.0613,2.2063 -0.1637,0.8503 0.2873,0.8503 C3.7903,1.4153 10.0043,1.5283 14.7483,1.5283 L53.4993,42.8783 L53.4993,15.6503 C53.4993,5.5953 52.3693,3.1103 44.9133,2.3193 C44.5743,2.2063 44.4613,0.8503 44.9133,0.8503 C48.3023,1.4153 51.0133,1.5283 55.8723,1.5283 C59.3743,1.5283 63.2153,1.1893 65.7013,0.8503 C66.2653,0.8503 65.9273,2.2063 65.8133,2.3193 C57.9053,2.8843 57.1143,6.2733 57.1143,15.6503" id="Fill-25" fill="#231F20" mask="url(#mask-10)"></path>
            </g>
        </g>
    </g>
</svg>